#!OML:ASF \\sashay\E\Suitcase\Project 1\Capture day 1\Session 1\Male1.ASF
:FULLY-SPECIFIED
:DEGREES
1
root -0.616302 17.6059 10.4314 9.17948 1.56479 -4.3519
lowerback -5.73091 -0.752068 0.354468
upperback -3.31351 -1.03326 3.41489
thorax -0.141956 -0.493671 3.26016
lowerneck -17.1181 -0.746323 -0.178904
upperneck 19.9637 -0.962353 -0.120681
head 9.09724 -0.478155 -0.134338
rclavicle 3.76177e-015 3.57812e-015
rhumerus -31.7764 -6.60628 -79.8203
rradius 25.5287
rwrist -12.9439
rhand -16.3704 16.7588
rfingers 7.12502
rthumb 9.84282 -12.9911
lclavicle 3.76177e-015 3.57812e-015
lhumerus -33.901 4.98134 87.823
lradius 27.7952
lwrist -8.87972
lhand 1.38736 45.4117
lfingers 7.12502
lthumb 26.9185 73.5147
rfemur -3.92738 -0.290775 25.2103
rtibia 6.90253
rfoot -9.98999 -12.4552
rtoes 10.3938
lfemur -7.87598 -3.10975 -14.1761
ltibia 16.7291
lfoot -16.4565 5.82766
ltoes 4.44487
2
root -0.623223 17.6121 10.422 9.22264 1.49595 -4.15152
lowerback -5.71101 -0.775558 0.0332723
upperback -3.30211 -1.0494 3.40374
thorax -0.135122 -0.497939 3.42922
lowerneck -17.2029 -0.753097 -0.170349
upperneck 20.0029 -0.964486 -0.161971
head 9.12602 -0.483031 -0.150684
rclavicle 5.50385e-015 2.78299e-015
rhumerus -31.8719 -6.68331 -79.7123
rradius 25.8405
rwrist -12.393
rhand -15.9283 16.2501
rfingers 7.12502
rthumb 10.2693 -13.4792
lclavicle 5.50385e-015 2.78299e-015
lhumerus -33.8036 4.85451 87.9693
lradius 27.7193
lwrist -8.08068
lhand 0.375322 45.0906
lfingers 7.12502
lthumb 25.9498 73.3392
rfemur -4.07712 -0.250342 25.0185
rtibia 7.00704
rfoot -10.1274 -12.4878
rtoes 11.0649
lfemur -7.94703 -2.97643 -14.3877
ltibia 16.6783
lfoot -16.3274 5.83357
ltoes 4.50973
3
root -0.624533 17.6131 10.4107 9.18601 1.34815 -4.28296
lowerback -5.64515 -0.74945 0.105978
upperback -3.1877 -1.02061 3.45974
thorax -0.0558423 -0.485544 3.44756
lowerneck -17.3862 -0.72518 -0.314444
upperneck 19.9622 -0.9219 -0.00414053
head 9.14701 -0.456347 -0.0678953
rclavicle -9.3025e-015 1.03368e-014
rhumerus -31.6891 -6.65447 -79.7887
rradius 25.8574
rwrist -12.6801
rhand -15.9199 15.287
rfingers 7.12502
rthumb 10.2774 -14.4419
lclavicle -9.3025e-015 1.03368e-014
lhumerus -33.5458 4.67648 88.0809
lradius 27.6362
lwrist -7.85342
lhand 0.293805 45.1839
lfingers 7.12502
lthumb 25.8718 73.444
rfemur -4.13807 -0.0851215 25.147
rtibia 7.0572
rfoot -10.0872 -12.5113
rtoes 11.206
lfemur -7.95192 -2.90227 -14.2568
ltibia 16.6796
lfoot -16.1661 5.95204
ltoes 4.53351
4
root -0.629004 17.6139 10.4056 9.20061 1.35845 -4.22921
lowerback -5.67162 -0.754891 0.00803285
upperback -3.16813 -1.02433 3.45575
thorax -0.0191911 -0.486711 3.49808
lowerneck -17.2804 -0.755179 -0.519264
upperneck 19.8981 -0.957072 0.21056
head 9.10789 -0.46461 0.0356919
rclavicle -5.5815e-015 1.19271e-015
rhumerus -31.6651 -6.70495 -79.7207
rradius 25.8095
rwrist -12.5475
rhand -16.1813 16.5019
rfingers 7.12502
rthumb 10.0253 -13.2393
lclavicle -5.5815e-015 1.19271e-015
lhumerus -33.5749 4.61042 87.9971
lradius 28.0839
lwrist -8.48425
lhand 2.29773 46.0501
lfingers 7.12502
lthumb 27.7893 74.0157
rfemur -4.19958 -0.101331 25.1097
rtibia 7.11035
rfoot -10.1105 -12.5178
rtoes 11.3079
lfemur -8.00342 -2.93915 -14.2918
ltibia 16.6821
lfoot -16.0608 5.94548
ltoes 4.38383
5
root -0.629981 17.6152 10.399 9.17565 1.26658 -4.1871
lowerback -5.77942 -0.76864 -0.0271255
upperback -3.02569 -1.04699 3.40232
thorax 0.188612 -0.500872 3.45856
lowerneck -17.2232 -0.735004 -0.530379
upperneck 19.7634 -0.955863 0.341033
head 9.0517 -0.450567 0.0827783
rclavicle 7.73397e-015 -7.95139e-016
rhumerus -31.4651 -6.77014 -79.8395
rradius 25.7225
rwrist -12.4211
rhand -16.0483 16.7708
rfingers 7.12502
rthumb 10.1536 -12.9642
lclavicle 7.73397e-015 -7.95139e-016
lhumerus -33.3379 4.89203 87.7958
lradius 27.8696
lwrist -8.95958
lhand 2.35943 45.8136
lfingers 7.12502
lthumb 27.8483 73.7696
rfemur -4.19493 -0.0202229 25.0519
rtibia 7.08869
rfoot -10.0722 -12.5312
rtoes 11.3459
lfemur -8.00072 -2.91866 -14.3458
ltibia 16.6986
lfoot -15.9411 5.98247
ltoes 4.29502
6
root -0.63379 17.6158 10.3853 9.20705 1.14741 -4.26579
lowerback -5.68438 -0.734081 0.00890552
upperback -2.95149 -1.00332 3.41868
thorax 0.209238 -0.480054 3.4582
lowerneck -17.4297 -0.771007 -0.580735
upperneck 19.8173 -0.999128 0.376025
head 9.10859 -0.470294 0.0967405
rclavicle 8.31168e-015 -1.94809e-014
rhumerus -31.31 -6.43283 -80.0227
rradius 25.9413
rwrist -12.969
rhand -15.9476 16.1936
rfingers 7.12502
rthumb 10.2507 -13.5367
lclavicle 8.31168e-015 -1.94809e-014
lhumerus -33.1949 4.65907 87.8404
lradius 28.1089
lwrist -8.75623
lhand 2.64685 46.1712
lfingers 7.12502
lthumb 28.123 74.0824
rfemur -4.35523 0.116554 25.1551
rtibia 7.19856
rfoot -10.0538 -12.5377
rtoes 11.3636
lfemur -8.06841 -2.86619 -14.2417
ltibia 16.6656
lfoot -15.7396 6.01707
ltoes 4.22347
7
root -0.63387 17.6156 10.39 9.202 1.16737 -4.24746
lowerback -5.7994 -0.742462 0.0463402
upperback -2.89605 -1.01999 3.39416
thorax 0.330294 -0.490234 3.40885
lowerneck -17.3304 -0.827715 -0.614246
upperneck 19.8256 -1.05719 0.323647
head 9.09354 -0.506091 0.0772705
rclavicle 1.0343e-014 -1.35174e-014
rhumerus -31.2576 -6.55516 -80.0031
rradius 25.8132
rwrist -12.8608
rhand -15.964 16.0758
rfingers 7.12502
rthumb 10.2348 -13.6552
lclavicle 1.0343e-014 -1.35174e-014
lhumerus -33.262 4.49703 87.8837
lradius 28.2736
lwrist -8.68886
lhand 2.25539 45.8606
lfingers 7.12502
lthumb 27.7488 73.8326
rfemur -4.361 0.0917531 25.1233
rtibia 7.26512
rfoot -10.0908 -12.5309
rtoes 11.1683
lfemur -8.02183 -2.87838 -14.2628
ltibia 16.6327
lfoot -15.6353 6.00131
ltoes 4.08275
